HIERARCHY
ROOT Hips
{
	OFFSET 0.00 0.00 0.00
	CHANNELS 6 Xposition Yposition Zposition Xrotation Yrotation Zrotation
	JOINT Spine
	{
		OFFSET 0.00000 1.75157 2.62736
		CHANNELS 3 Xrotation Yrotation Zrotation
		JOINT Spine1
		{
			OFFSET 0.00000 0.60831 3.44992
			CHANNELS 3 Xrotation Yrotation Zrotation
			JOINT Spine2
			{
				OFFSET 0.00000 0.30532 3.48981
				CHANNELS 3 Xrotation Yrotation Zrotation
				JOINT Spine3
				{
					OFFSET 0.00000 0.00000 3.50314
					CHANNELS 3 Xrotation Yrotation Zrotation
					JOINT Neck
					{
						OFFSET 0.00000 -1.31367 9.19575
						CHANNELS 3 Xrotation Yrotation Zrotation
						JOINT Head
						{
							OFFSET 0.00000 -0.83643 4.74364
							CHANNELS 3 Xrotation Yrotation Zrotation
							End Site
							{
								OFFSET 0.00000 0.00001 5.67071
							}
						}
					}
					JOINT RightShoulder
					{
						OFFSET -1.05974 -1.76624 5.72262
						CHANNELS 3 Xrotation Yrotation Zrotation
						JOINT RightArm
						{
							OFFSET -5.26340 0.00000 0.00000
							CHANNELS 3 Xrotation Yrotation Zrotation
							JOINT RightForeArm
							{
								OFFSET -10.14667 0.00000 0.00000
								CHANNELS 3 Xrotation Yrotation Zrotation
								JOINT RightHand
								{
									OFFSET -8.53343 0.00000 0.00000
									CHANNELS 3 Xrotation Yrotation Zrotation
									JOINT RightHandEnd
									{
										OFFSET -2.46135 0.00000 0.00000
										CHANNELS 3 Xrotation Yrotation Zrotation
										End Site
										{
											OFFSET -2.46135 0.00000 0.00000
										}
									}
									JOINT RightHandThumb1
									{
										OFFSET -0.98454 -1.64090 -0.65636
										CHANNELS 3 Yrotation Xrotation Zrotation
										End Site
										{
											OFFSET -2.37748 -0.63704 0.00000
										}
									}
								}
							}
						}
					}
					JOINT LeftShoulder
					{
						OFFSET 1.05974 -1.76624 5.72262
						CHANNELS 3 Xrotation Yrotation Zrotation
						JOINT LeftArm
						{
							OFFSET 5.26340 0.00000 0.00000
							CHANNELS 3 Xrotation Yrotation Zrotation
							JOINT LeftForeArm
							{
								OFFSET 10.14667 0.00000 0.00000
								CHANNELS 3 Xrotation Yrotation Zrotation
								JOINT LeftHand
								{
									OFFSET 8.53343 0.00000 0.00000
									CHANNELS 3 Xrotation Yrotation Zrotation
									JOINT LeftHandEnd
									{
										OFFSET 2.46135 0.00000 0.00000
										CHANNELS 3 Xrotation Yrotation Zrotation
										End Site
										{
											OFFSET 2.46135 0.00000 0.00000
										}
									}
									JOINT LeftHandThumb1
									{
										OFFSET 0.98454 -1.64090 -0.65636
										CHANNELS 3 Yrotation Xrotation Zrotation
										End Site
										{
											OFFSET 2.37748 -0.63704 0.00000
										}
									}
								}
							}
						}
					}
				}
			}
		}
	}
	JOINT RightUpLeg
	{
		OFFSET -3.14391 0.00000 -0.91845
		CHANNELS 3 Xrotation Yrotation Zrotation
		JOINT RightLeg
		{
			OFFSET 0.00000 0.00000 -14.43197
			CHANNELS 3 Xrotation Yrotation Zrotation
			JOINT RightFoot
			{
				OFFSET 0.00000 0.00000 -14.31693
				CHANNELS 3 Xrotation Yrotation Zrotation
				JOINT RightToeBase
				{
					OFFSET 0.00000 -4.51635 -1.64382
					CHANNELS 3 Xrotation Yrotation Zrotation
					End Site
					{
						OFFSET 0.00000 -2.54339 -0.00000
					}
				}
			}
		}
	}
	JOINT LeftUpLeg
	{
		OFFSET 3.14391 0.00000 -0.91845
		CHANNELS 3 Xrotation Yrotation Zrotation
		JOINT LeftLeg
		{
			OFFSET 0.00000 0.00000 -14.43197
			CHANNELS 3 Xrotation Yrotation Zrotation
			JOINT LeftFoot
			{
				OFFSET 0.00000 0.00000 -14.31693
				CHANNELS 3 Xrotation Yrotation Zrotation
				JOINT LeftToeBase
				{
					OFFSET 0.00000 -4.51635 -1.64382
					CHANNELS 3 Xrotation Yrotation Zrotation
					End Site
					{
						OFFSET 0.00000 -2.54339 -0.00000
					}
				}
			}
		}
	}
}
MOTION
Frames: 6
Frame Time: 0.008342
 -29.4823 -28.5917 30.9380 5.0928 3.1471 91.1017 -0.7250 1.2523 -0.1847 -0.8396 -0.0853 -0.1499 1.6857 2.0005 -2.3621 0.8044 0.8397 -1.5755 -4.7133 -3.9782 -0.5489 -7.9264 -1.0269 0.7122 7.5320 -10.0110 12.0146 3.0514 -9.4337 23.5968 -0.0000 0.0001 88.0964 55.6841 30.7102 -13.4377 0.0000 0.0000 0.0000 -0.0000 0.0000 0.0000 -0.3379 7.6041 -12.2395 39.4427 44.2134 -57.0596 -0.0001 -0.0000 -119.5613 29.2535 -10.7626 -1.1265 0.0000 -0.0000 -0.0000 0.0000 0.0000 0.0000 -6.5574 10.3761 -13.4283 53.9928 0.0000 0.0000 7.2023 -10.5148 -4.5561 -30.5152 0.0000 -0.0000 -7.3295 12.2070 18.7805 12.5808 0.0000 0.0000 -12.2688 2.6067 2.3705 -4.6489 0.0000 -0.0000
 -29.6250 -28.5957 30.9428 4.9942 3.3162 90.6681 -0.8693 1.0952 -0.1294 -0.9629 -0.1699 -0.1321 1.7569 2.1503 -1.8926 0.8406 0.7998 -1.4304 -4.7690 -3.8292 -0.6328 -7.8446 -1.0848 0.5270 7.4915 -9.9968 12.1090 3.1514 -8.9953 23.6742 -0.0000 0.0001 88.0369 55.7834 30.5774 -13.7345 -0.0000 -0.0000 -0.0000 -0.0000 -0.0000 -0.0000 -0.2392 7.9093 -12.1783 39.5514 43.8751 -56.6478 -0.0001 -0.0000 -119.6171 29.1835 -10.7539 -1.1871 0.0000 0.0000 0.0000 0.0000 0.0000 0.0000 -5.3356 10.1131 -13.8375 52.2225 0.0000 0.0000 8.2329 -11.4185 -4.5008 -32.5664 0.0000 -0.0000 -7.9363 12.0829 18.7086 12.7451 0.0000 0.0000 -12.1655 2.4383 2.8865 -4.3380 0.0000 -0.0000
 -29.7677 -28.6048 30.9485 4.8778 3.4675 90.2389 -0.9924 0.9277 -0.0758 -1.0667 -0.2526 -0.1095 1.8253 2.2942 -1.4188 0.8753 0.7582 -1.2785 -4.8527 -3.6839 -0.7330 -7.7607 -1.1383 0.3386 7.4453 -9.9929 12.2091 3.2468 -8.6328 23.8380 -0.0000 0.0001 87.9383 55.9361 30.4324 -14.1107 0.0000 0.0000 0.0000 -0.0000 -0.0000 0.0000 -0.1328 8.2062 -12.1324 39.6679 43.5929 -56.1585 -0.0001 -0.0000 -119.6696 29.1371 -10.7338 -1.2114 -0.0000 -0.0000 -0.0000 0.0000 -0.0000 -0.0000 -4.1305 9.8029 -14.2313 50.3930 0.0000 0.0000 9.0406 -12.1913 -4.3567 -34.8679 0.0000 -0.0000 -8.5406 11.9215 18.6219 12.9431 0.0000 0.0000 -12.0494 2.2415 3.4171 -4.0589 0.0000 -0.0000
 -29.9111 -28.6196 30.9549 4.7333 3.6033 89.8203 -1.0933 0.7482 -0.0241 -1.1528 -0.3416 -0.0878 1.8911 2.4329 -0.9454 0.9074 0.7166 -1.1244 -4.9602 -3.5427 -0.8437 -7.6797 -1.1887 0.1486 7.3892 -9.9985 12.3218 3.3345 -8.3553 24.0871 -0.0000 0.0001 87.8012 56.1163 30.2623 -14.5557 -0.0000 0.0000 -0.0000 0.0000 -0.0000 -0.0000 -0.0243 8.4934 -12.1018 39.7904 43.3730 -55.5814 -0.0001 -0.0000 -119.7215 29.1107 -10.7049 -1.2059 0.0000 -0.0000 -0.0000 -0.0000 -0.0000 0.0000 -2.9566 9.4378 -14.6168 48.5295 0.0000 0.0000 9.5732 -12.8029 -4.1445 -37.2774 0.0000 -0.0000 -9.1435 11.7110 18.5265 13.1757 0.0000 0.0000 -11.9201 2.0120 3.9364 -3.8190 0.0000 -0.0000
 -30.0550 -28.6400 30.9618 4.5571 3.7239 89.4143 -1.1719 0.5578 0.0249 -1.2166 -0.4377 -0.0670 1.9479 2.5617 -0.4756 0.9364 0.6747 -0.9743 -5.0853 -3.4010 -0.9574 -7.6071 -1.2401 -0.0432 7.3186 -10.0138 12.4610 3.4144 -8.1624 24.4071 -0.0000 0.0001 87.6308 56.2846 30.0615 -15.0430 0.0000 0.0000 0.0000 0.0000 0.0000 0.0000 0.0902 8.7720 -12.0819 39.9118 43.2168 -54.9155 -0.0001 -0.0000 -119.7714 29.1011 -10.6747 -1.1770 0.0000 0.0000 -0.0000 0.0000 -0.0000 -0.0000 -1.8281 9.0195 -14.9987 46.6610 0.0000 0.0000 9.7939 -13.2401 -3.8885 -39.6038 0.0000 -0.0000 -9.7398 11.4482 18.4309 13.4350 0.0000 0.0000 -11.7746 1.7481 4.4205 -3.6166 0.0000 -0.0000
 -30.2006 -28.6667 30.9695 4.3353 3.8361 89.0225 -1.2303 0.3478 0.0724 -1.2650 -0.5407 -0.0464 2.0013 2.6728 -0.0249 0.9632 0.6353 -0.8235 -5.2296 -3.2595 -1.0686 -7.5443 -1.2926 -0.2354 7.2282 -10.0383 12.6362 3.4848 -8.0567 24.7898 -0.0000 0.0001 87.4265 56.4114 29.8357 -15.5526 -0.0000 0.0000 -0.0000 0.0000 -0.0000 -0.0000 0.2008 9.0368 -12.0726 40.0382 43.1339 -54.1611 -0.0001 -0.0000 -119.8172 29.1034 -10.6531 -1.1362 -0.0000 -0.0000 0.0000 -0.0000 0.0000 0.0000 -0.7665 8.5345 -15.3748 44.8132 0.0000 0.0000 9.6900 -13.5056 -3.6229 -41.6285 0.0000 -0.0000 -10.3370 11.1176 18.3395 13.7238 0.0000 0.0000 -11.6169 1.4453 4.8524 -3.4413 0.0000 -0.0000
